<svg width="100" height="34" viewBox="0 0 100 34" fill="none" xmlns="http://www.w3.org/2000/svg">
<path d="M29.3948 29.485C28.4739 29.485 27.6659 29.2659 26.9707 28.8275C26.28 28.3892 25.7399 27.776 25.3503 26.9879C24.9651 26.1998 24.7725 25.2789 24.7725 24.2251C24.7725 23.1625 24.9651 22.235 25.3503 21.4424C25.7399 20.6499 26.28 20.0345 26.9707 19.5961C27.6659 19.1578 28.4739 18.9387 29.3948 18.9387C30.3157 18.9387 31.1215 19.1578 31.8122 19.5961C32.5074 20.0345 33.0475 20.6499 33.4327 21.4424C33.8223 22.235 34.0171 23.1625 34.0171 24.2251C34.0171 25.2789 33.8223 26.1998 33.4327 26.9879C33.0475 27.776 32.5074 28.3892 31.8122 28.8275C31.1215 29.2659 30.3157 29.485 29.3948 29.485ZM29.3948 28.0771C30.0944 28.0771 30.6699 27.8978 31.1215 27.5391C31.5731 27.1805 31.9074 26.709 32.1244 26.1245C32.3413 25.5401 32.4498 24.907 32.4498 24.2251C32.4498 23.5433 32.3413 22.9079 32.1244 22.3191C31.9074 21.7302 31.5731 21.2543 31.1215 20.8912C30.6699 20.5281 30.0944 20.3466 29.3948 20.3466C28.6953 20.3466 28.1197 20.5281 27.6681 20.8912C27.2165 21.2543 26.8822 21.7302 26.6652 22.3191C26.4483 22.9079 26.3398 23.5433 26.3398 24.2251C26.3398 24.907 26.4483 25.5401 26.6652 26.1245C26.8822 26.709 27.2165 27.1805 27.6681 27.5391C28.1197 27.8978 28.6953 28.0771 29.3948 28.0771Z" fill="url(#paint0_linear_804_67)"/>
<path d="M36.4097 33.0979V19.0715H37.9239V20.692H38.1098C38.225 20.5149 38.3843 20.2891 38.588 20.0145C38.7961 19.7356 39.0928 19.4877 39.4779 19.2707C39.8676 19.0493 40.3944 18.9387 41.0586 18.9387C41.9175 18.9387 42.6746 19.1534 43.3299 19.5829C43.9852 20.0123 44.4966 20.6211 44.864 21.4092C45.2315 22.1973 45.4153 23.1271 45.4153 24.1986C45.4153 25.2789 45.2315 26.2153 44.864 27.0078C44.4966 27.7959 43.9874 28.4069 43.3365 28.8408C42.6857 29.2703 41.9352 29.485 41.0851 29.485C40.4299 29.485 39.9052 29.3766 39.5112 29.1596C39.1171 28.9382 38.8138 28.6881 38.6013 28.4091C38.3888 28.1258 38.225 27.8911 38.1098 27.7052H37.977V33.0979H36.4097ZM37.9504 24.172C37.9504 24.9424 38.0633 25.622 38.2892 26.2109C38.515 26.7953 38.8448 27.2536 39.2787 27.5856C39.7126 27.9133 40.2439 28.0771 40.8726 28.0771C41.5279 28.0771 42.0747 27.9044 42.513 27.5591C42.9558 27.2093 43.2878 26.74 43.5092 26.1511C43.735 25.5578 43.8479 24.8981 43.8479 24.172C43.8479 23.4547 43.7372 22.8083 43.5159 22.2327C43.2989 21.6527 42.9691 21.1945 42.5263 20.858C42.088 20.5171 41.5367 20.3466 40.8726 20.3466C40.2351 20.3466 39.6993 20.5082 39.2654 20.8314C38.8315 21.1502 38.5039 21.5974 38.2825 22.173C38.0611 22.7441 37.9504 23.4105 37.9504 24.172Z" fill="url(#paint1_linear_804_67)"/>
<path d="M52.0831 29.485C51.1002 29.485 50.2523 29.2681 49.5395 28.8342C48.8311 28.3959 48.2843 27.7849 47.8991 27.0012C47.5183 26.2131 47.328 25.2966 47.328 24.2517C47.328 23.2068 47.5183 22.2859 47.8991 21.4889C48.2843 20.6875 48.82 20.0633 49.5063 19.6161C50.197 19.1645 51.0028 18.9387 51.9237 18.9387C52.455 18.9387 52.9797 19.0272 53.4977 19.2043C54.0157 19.3814 54.4873 19.6692 54.9123 20.0677C55.3374 20.4617 55.6761 20.9842 55.9284 21.635C56.1808 22.2859 56.307 23.0873 56.307 24.0392V24.7033H48.4437V23.3485H54.7131C54.7131 22.7729 54.598 22.2593 54.3677 21.8077C54.1419 21.3561 53.8187 20.9997 53.3981 20.7384C52.9819 20.4772 52.4905 20.3466 51.9237 20.3466C51.2994 20.3466 50.7593 20.5016 50.3033 20.8115C49.8516 21.117 49.5041 21.5155 49.2606 22.0069C49.0171 22.4984 48.8953 23.0253 48.8953 23.5876V24.4908C48.8953 25.2612 49.0281 25.9142 49.2938 26.45C49.5639 26.9813 49.938 27.3864 50.4162 27.6653C50.8943 27.9398 51.45 28.0771 52.0831 28.0771C52.4949 28.0771 52.8668 28.0195 53.1989 27.9044C53.5354 27.7849 53.8254 27.6078 54.0689 27.3731C54.3124 27.134 54.5006 26.8374 54.6334 26.4832L56.1476 26.9082C55.9882 27.4218 55.7203 27.8734 55.344 28.263C54.9677 28.6482 54.5028 28.9493 53.9493 29.1663C53.3959 29.3788 52.7738 29.485 52.0831 29.485Z" fill="url(#paint2_linear_804_67)"/>
<path d="M62.5432 29.485C61.6931 29.485 60.9426 29.2703 60.2918 28.8408C59.6409 28.4069 59.1317 27.7959 58.7643 27.0078C58.3968 26.2153 58.213 25.2789 58.213 24.1986C58.213 23.1271 58.3968 22.1973 58.7643 21.4092C59.1317 20.6211 59.6431 20.0123 60.2984 19.5829C60.9537 19.1534 61.7108 18.9387 62.5697 18.9387C63.2339 18.9387 63.7585 19.0493 64.1437 19.2707C64.5333 19.4877 64.83 19.7356 65.0336 20.0145C65.2417 20.2891 65.4033 20.5149 65.5185 20.692H65.6513V15.6711H67.2186V29.2725H65.7044V27.7052H65.5185C65.4033 27.8911 65.2395 28.1258 65.027 28.4091C64.8145 28.6881 64.5112 28.9382 64.1171 29.1596C63.7231 29.3766 63.1984 29.485 62.5432 29.485ZM62.7557 28.0771C63.3844 28.0771 63.9157 27.9133 64.3496 27.5856C64.7835 27.2536 65.1133 26.7953 65.3391 26.2109C65.5649 25.622 65.6778 24.9424 65.6778 24.172C65.6778 23.4105 65.5672 22.7441 65.3458 22.173C65.1244 21.5974 64.7968 21.1502 64.3629 20.8314C63.929 20.5082 63.3932 20.3466 62.7557 20.3466C62.0916 20.3466 61.5381 20.5171 61.0954 20.858C60.657 21.1945 60.3272 21.6527 60.1058 22.2327C59.8889 22.8083 59.7804 23.4547 59.7804 24.172C59.7804 24.8981 59.8911 25.5578 60.1124 26.1511C60.3382 26.74 60.6703 27.2093 61.1086 27.5591C61.5514 27.9044 62.1004 28.0771 62.7557 28.0771Z" fill="url(#paint3_linear_804_67)"/>
<path d="M74.4244 33.3104C73.6673 33.3104 73.0165 33.213 72.4719 33.0182C71.9273 32.8278 71.4735 32.5754 71.1104 32.2611C70.7518 31.9512 70.4662 31.6191 70.2537 31.2649L71.5023 30.3883C71.6439 30.5742 71.8233 30.7867 72.0402 31.0258C72.2572 31.2693 72.5538 31.4796 72.9301 31.6567C73.3109 31.8383 73.809 31.929 74.4244 31.929C75.248 31.929 75.9276 31.7298 76.4633 31.3313C76.999 30.9328 77.2669 30.3086 77.2669 29.4585V27.3864H77.1341C77.019 27.5723 76.8551 27.8026 76.6426 28.0771C76.4345 28.3472 76.1335 28.5885 75.7394 28.801C75.3498 29.0091 74.8229 29.1131 74.1588 29.1131C73.3353 29.1131 72.5959 28.9183 71.9406 28.5287C71.2897 28.1391 70.7739 27.5723 70.3932 26.8285C70.0168 26.0847 69.8287 25.1815 69.8287 24.1189C69.8287 23.074 70.0124 22.1641 70.3799 21.3893C70.7474 20.6101 71.2588 20.0079 71.914 19.5829C72.5693 19.1534 73.3264 18.9387 74.1853 18.9387C74.8495 18.9387 75.3764 19.0493 75.766 19.2707C76.16 19.4877 76.4611 19.7356 76.6692 20.0145C76.8817 20.2891 77.0455 20.5149 77.1606 20.692H77.32V19.0715H78.8343V29.5647C78.8343 30.4414 78.635 31.1542 78.2365 31.7032C77.8425 32.2567 77.3112 32.6618 76.6426 32.9186C75.9785 33.1798 75.2391 33.3104 74.4244 33.3104ZM74.3713 27.7052C75 27.7052 75.5313 27.5613 75.9652 27.2735C76.3991 26.9857 76.729 26.5717 76.9548 26.0316C77.1806 25.4914 77.2935 24.845 77.2935 24.0923C77.2935 23.3573 77.1828 22.7087 76.9614 22.1464C76.74 21.5841 76.4124 21.1436 75.9785 20.8248C75.5446 20.506 75.0089 20.3466 74.3713 20.3466C73.7072 20.3466 73.1537 20.5149 72.711 20.8514C72.2727 21.1878 71.9428 21.6395 71.7214 22.2062C71.5045 22.7729 71.396 23.4016 71.396 24.0923C71.396 24.8007 71.5067 25.4272 71.7281 25.9718C71.9539 26.5119 72.2859 26.937 72.7243 27.2469C73.167 27.5524 73.716 27.7052 74.3713 27.7052Z" fill="url(#paint4_linear_804_67)"/>
<path d="M85.9803 29.485C84.9974 29.485 84.1495 29.2681 83.4367 28.8342C82.7283 28.3959 82.1815 27.7849 81.7963 27.0012C81.4155 26.2131 81.2251 25.2966 81.2251 24.2517C81.2251 23.2068 81.4155 22.2859 81.7963 21.4889C82.1815 20.6875 82.7172 20.0633 83.4035 19.6161C84.0942 19.1645 84.9 18.9387 85.8209 18.9387C86.3522 18.9387 86.8769 19.0272 87.3949 19.2043C87.9129 19.3814 88.3844 19.6692 88.8095 20.0677C89.2345 20.4617 89.5732 20.9842 89.8256 21.635C90.078 22.2859 90.2041 23.0873 90.2041 24.0392V24.7033H82.3409V23.3485H88.6102C88.6102 22.7729 88.4951 22.2593 88.2649 21.8077C88.0391 21.3561 87.7159 20.9997 87.2953 20.7384C86.8791 20.4772 86.3876 20.3466 85.8209 20.3466C85.1966 20.3466 84.6565 20.5016 84.2004 20.8115C83.7488 21.117 83.4012 21.5155 83.1577 22.0069C82.9142 22.4984 82.7925 23.0253 82.7925 23.5876V24.4908C82.7925 25.2612 82.9253 25.9142 83.1909 26.45C83.461 26.9813 83.8351 27.3864 84.3133 27.6653C84.7915 27.9398 85.3471 28.0771 85.9803 28.0771C86.392 28.0771 86.764 28.0195 87.096 27.9044C87.4325 27.7849 87.7225 27.6078 87.966 27.3731C88.2095 27.134 88.3977 26.8374 88.5305 26.4832L90.0448 26.9082C89.8854 27.4218 89.6175 27.8734 89.2412 28.263C88.8648 28.6482 88.3999 28.9493 87.8465 29.1663C87.293 29.3788 86.671 29.485 85.9803 29.485Z" fill="url(#paint5_linear_804_67)"/>
<path d="M99.8141 21.3561L98.4061 21.7546C98.3176 21.5199 98.187 21.2919 98.0143 21.0705C97.8461 20.8447 97.6158 20.6588 97.3236 20.5126C97.0314 20.3665 96.6573 20.2935 96.2012 20.2935C95.577 20.2935 95.0567 20.4374 94.6405 20.7252C94.2288 21.0085 94.0229 21.3694 94.0229 21.8077C94.0229 22.1973 94.1646 22.505 94.4479 22.7308C94.7313 22.9566 95.1741 23.1448 95.7762 23.2953L97.2904 23.6673C98.2025 23.8886 98.8821 24.2273 99.3293 24.6834C99.7765 25.135 100 25.7172 100 26.43C100 27.0145 99.8318 27.5369 99.4953 27.9974C99.1633 28.4578 98.6984 28.8209 98.1006 29.0866C97.5029 29.3522 96.8078 29.485 96.0153 29.485C94.9748 29.485 94.1137 29.2592 93.4318 28.8076C92.75 28.356 92.3183 27.6963 92.1368 26.8285L93.6244 26.4566C93.7661 27.0056 94.034 27.4174 94.428 27.6919C94.8265 27.9664 95.3467 28.1036 95.9887 28.1036C96.7193 28.1036 97.2993 27.9487 97.7287 27.6388C98.1626 27.3244 98.3796 26.9481 98.3796 26.5097C98.3796 26.1555 98.2556 25.8589 98.0077 25.6198C97.7597 25.3763 97.379 25.1948 96.8654 25.0752L95.1652 24.6767C94.231 24.4554 93.5447 24.1122 93.1064 23.6473C92.6725 23.178 92.4555 22.5914 92.4555 21.8874C92.4555 21.3118 92.6172 20.8026 92.9404 20.3599C93.268 19.9171 93.713 19.5696 94.2753 19.3172C94.842 19.0648 95.484 18.9387 96.2012 18.9387C97.2107 18.9387 98.0032 19.16 98.5788 19.6028C99.1588 20.0455 99.5706 20.63 99.8141 21.3561Z" fill="url(#paint6_linear_804_67)"/>
<path d="M12.3419 23.0893L10.3913 15.1762C11.955 14.7879 14.0406 14.5346 16.3739 14.5346C18.7071 14.5346 20.7907 14.7879 22.3564 15.1762L20.4059 23.0893C19.1676 22.9294 17.8066 22.8401 16.3739 22.8401C14.9412 22.8401 13.5801 22.9294 12.3419 23.0893ZM12.8433 25.12L14.3886 31.3948C14.9043 33.4919 17.8434 33.4919 18.3592 31.3948L19.9045 25.1241C18.8299 24.9892 17.6387 24.9165 16.3739 24.9165C15.109 24.9165 13.9178 24.9912 12.8433 25.12ZM3.84596 7.23616C3.63059 7.18206 3.43839 7.05843 3.29831 6.88387C3.15823 6.70932 3.07786 6.49331 3.06931 6.26839C3.06077 6.04347 3.12451 5.82183 3.25093 5.63685C3.37735 5.45188 3.5596 5.3136 3.77023 5.24284L16.0505 1.09009C16.2604 1.01916 16.4873 1.01916 16.6973 1.09009L28.9775 5.24284C29.1881 5.31359 29.3704 5.45188 29.4968 5.63685C29.6232 5.82182 29.687 6.04347 29.6784 6.26839C29.6699 6.49331 29.5895 6.70932 29.4494 6.88387C29.3094 7.05842 29.1172 7.18206 28.9018 7.23616L24.0081 8.47783L22.8517 13.1642C21.0875 12.724 18.832 12.4603 16.3739 12.4603C13.9158 12.4603 11.6603 12.724 9.89604 13.1642L8.73964 8.47783L3.84596 7.23616Z" fill="url(#paint7_linear_804_67)"/>
<defs>
<linearGradient id="paint0_linear_804_67" x1="62.5558" y1="10.5706" x2="62.5558" y2="33.2801" gradientUnits="userSpaceOnUse">
<stop stop-color="#2C7CF9"/>
<stop offset="1" stop-color="#051099"/>
</linearGradient>
<linearGradient id="paint1_linear_804_67" x1="62.5558" y1="10.5706" x2="62.5558" y2="33.2801" gradientUnits="userSpaceOnUse">
<stop stop-color="#2C7CF9"/>
<stop offset="1" stop-color="#051099"/>
</linearGradient>
<linearGradient id="paint2_linear_804_67" x1="62.5558" y1="10.5706" x2="62.5558" y2="33.2801" gradientUnits="userSpaceOnUse">
<stop stop-color="#2C7CF9"/>
<stop offset="1" stop-color="#051099"/>
</linearGradient>
<linearGradient id="paint3_linear_804_67" x1="62.5558" y1="10.5706" x2="62.5558" y2="33.2801" gradientUnits="userSpaceOnUse">
<stop stop-color="#2C7CF9"/>
<stop offset="1" stop-color="#051099"/>
</linearGradient>
<linearGradient id="paint4_linear_804_67" x1="62.5558" y1="10.5706" x2="62.5558" y2="33.2801" gradientUnits="userSpaceOnUse">
<stop stop-color="#2C7CF9"/>
<stop offset="1" stop-color="#051099"/>
</linearGradient>
<linearGradient id="paint5_linear_804_67" x1="62.5558" y1="10.5706" x2="62.5558" y2="33.2801" gradientUnits="userSpaceOnUse">
<stop stop-color="#2C7CF9"/>
<stop offset="1" stop-color="#051099"/>
</linearGradient>
<linearGradient id="paint6_linear_804_67" x1="62.5558" y1="10.5706" x2="62.5558" y2="33.2801" gradientUnits="userSpaceOnUse">
<stop stop-color="#2C7CF9"/>
<stop offset="1" stop-color="#051099"/>
</linearGradient>
<linearGradient id="paint7_linear_804_67" x1="16.3739" y1="32.9676" x2="16.3739" y2="1.0369" gradientUnits="userSpaceOnUse">
<stop stop-color="#2C7CF9"/>
<stop offset="1" stop-color="#051099"/>
</linearGradient>
</defs>
</svg>
